<?xml version="1.0" encoding="UTF-8" standalone="no"?><!DOCTYPE svg PUBLIC "-//W3C//DTD SVG 1.1//EN" "http://www.w3.org/Graphics/SVG/1.1/DTD/svg11.dtd"><!-- Generated by graphviz version 2.40.1 (20161225.0304)
 --><!-- Title: G Pages: 1 --><svg xmlns="http://www.w3.org/2000/svg" xmlns:xlink="http://www.w3.org/1999/xlink" width="427pt" height="332pt" viewBox="0.00 0.00 426.79 332.00">
<g id="graph0" class="graph" transform="scale(1 1) rotate(0) translate(4 328)">
<title>G</title>
<polygon fill="#ffffff" stroke="transparent" points="-4,4 -4,-328 422.7942,-328 422.7942,4 -4,4"/>
<!-- root -->
<g id="node1" class="node">
<title>root</title>
<ellipse fill="none" stroke="#000000" cx="283.7942" cy="-306" rx="27" ry="18"/>
</g>
<!-- _0 -->
<g id="node2" class="node">
<title>_0</title>
<ellipse fill="none" stroke="#000000" cx="175.7942" cy="-234" rx="27" ry="18"/>
<text text-anchor="middle" x="175.7942" y="-229.8" font-family="Times,serif" font-size="14.00" fill="#000000">0</text>
</g>
<!-- root&#45;&gt;_0 -->
<g id="edge1" class="edge">
<title>root-&gt;_0</title>
<path fill="none" stroke="#000000" d="M264.486,-293.1278C247.4387,-281.763 222.3923,-265.0654 203.2598,-252.3104"/>
<polygon fill="#000000" stroke="#000000" points="205.1973,-249.3956 194.9353,-246.7607 201.3144,-255.2199 205.1973,-249.3956"/>
</g>
<!-- _1 -->
<g id="node3" class="node">
<title>_1</title>
<ellipse fill="none" stroke="#000000" cx="247.7942" cy="-234" rx="27" ry="18"/>
<text text-anchor="middle" x="247.7942" y="-229.8" font-family="Times,serif" font-size="14.00" fill="#000000">1</text>
</g>
<!-- root&#45;&gt;_1 -->
<g id="edge2" class="edge">
<title>root-&gt;_1</title>
<path fill="none" stroke="#000000" d="M275.0796,-288.5708C270.8346,-280.0807 265.6407,-269.6929 260.9279,-260.2674"/>
<polygon fill="#000000" stroke="#000000" points="264.0313,-258.6477 256.4286,-251.2687 257.7703,-261.7782 264.0313,-258.6477"/>
</g>
<!-- _7 -->
<g id="node4" class="node">
<title>_7</title>
<ellipse fill="none" stroke="#000000" cx="319.7942" cy="-234" rx="27" ry="18"/>
<text text-anchor="middle" x="319.7942" y="-229.8" font-family="Times,serif" font-size="14.00" fill="#000000">7</text>
</g>
<!-- root&#45;&gt;_7 -->
<g id="edge3" class="edge">
<title>root-&gt;_7</title>
<path fill="none" stroke="#000000" d="M292.5088,-288.5708C296.7539,-280.0807 301.9478,-269.6929 306.6605,-260.2674"/>
<polygon fill="#000000" stroke="#000000" points="309.8182,-261.7782 311.1599,-251.2687 303.5572,-258.6477 309.8182,-261.7782"/>
</g>
<!-- _f -->
<g id="node5" class="node">
<title>_f</title>
<ellipse fill="none" stroke="#000000" cx="391.7942" cy="-234" rx="27" ry="18"/>
<text text-anchor="middle" x="391.7942" y="-229.8" font-family="Times,serif" font-size="14.00" fill="#000000">f</text>
</g>
<!-- root&#45;&gt;_f -->
<g id="edge4" class="edge">
<title>root-&gt;_f</title>
<path fill="none" stroke="#000000" d="M303.1025,-293.1278C320.1497,-281.763 345.1961,-265.0654 364.3287,-252.3104"/>
<polygon fill="#000000" stroke="#000000" points="366.2741,-255.2199 372.6532,-246.7607 362.3912,-249.3956 366.2741,-255.2199"/>
</g>
<!-- _78 -->
<g id="node6" class="node">
<title>_78</title>
<ellipse fill="none" stroke="#000000" cx="283.7942" cy="-162" rx="27" ry="18"/>
<text text-anchor="middle" x="283.7942" y="-157.8" font-family="Times,serif" font-size="14.00" fill="#000000">78</text>
</g>
<!-- _7&#45;&gt;_78 -->
<g id="edge5" class="edge">
<title>_7-&gt;_78</title>
<path fill="none" stroke="#000000" d="M311.0796,-216.5708C306.8346,-208.0807 301.6407,-197.6929 296.9279,-188.2674"/>
<polygon fill="#000000" stroke="#000000" points="300.0313,-186.6477 292.4286,-179.2687 293.7703,-189.7782 300.0313,-186.6477"/>
</g>
<!-- _73 -->
<g id="node10" class="node">
<title>_73</title>
<ellipse fill="none" stroke="#000000" cx="355.7942" cy="-162" rx="27" ry="18"/>
<text text-anchor="middle" x="355.7942" y="-157.8" font-family="Times,serif" font-size="14.00" fill="#000000">73</text>
</g>
<!-- _7&#45;&gt;_73 -->
<g id="edge9" class="edge">
<title>_7-&gt;_73</title>
<path fill="none" stroke="#000000" d="M328.5088,-216.5708C332.7539,-208.0807 337.9478,-197.6929 342.6605,-188.2674"/>
<polygon fill="#000000" stroke="#000000" points="345.8182,-189.7782 347.1599,-179.2687 339.5572,-186.6477 345.8182,-189.7782"/>
</g>
<!-- _78f -->
<g id="node7" class="node">
<title>_78f</title>
<ellipse fill="none" stroke="#000000" cx="247.7942" cy="-90" rx="27" ry="18"/>
<text text-anchor="middle" x="247.7942" y="-85.8" font-family="Times,serif" font-size="14.00" fill="#000000">78f</text>
</g>
<!-- _78&#45;&gt;_78f -->
<g id="edge6" class="edge">
<title>_78-&gt;_78f</title>
<path fill="none" stroke="#000000" d="M275.0796,-144.5708C270.8346,-136.0807 265.6407,-125.6929 260.9279,-116.2674"/>
<polygon fill="#000000" stroke="#000000" points="264.0313,-114.6477 256.4286,-107.2687 257.7703,-117.7782 264.0313,-114.6477"/>
</g>
<!-- _78c -->
<g id="node11" class="node">
<title>_78c</title>
<ellipse fill="none" stroke="#000000" cx="333.7942" cy="-90" rx="27" ry="18"/>
<text text-anchor="middle" x="333.7942" y="-85.8" font-family="Times,serif" font-size="14.00" fill="#000000">78c</text>
</g>
<!-- _78&#45;&gt;_78c -->
<g id="edge10" class="edge">
<title>_78-&gt;_78c</title>
<path fill="none" stroke="#000000" d="M295.14,-145.6621C301.3797,-136.6768 309.2565,-125.3343 316.2691,-115.2362"/>
<polygon fill="#000000" stroke="#000000" points="319.3172,-116.983 322.1464,-106.7729 313.5676,-112.9902 319.3172,-116.983"/>
</g>
<!-- _78fc -->
<g id="node8" class="node">
<title>_78fc</title>
<ellipse fill="none" stroke="#000000" cx="88.7942" cy="-18" rx="88.5889" ry="18"/>
<text text-anchor="middle" x="88.7942" y="-13.8" font-family="Times,serif" font-size="14.00" fill="#000000">78fc (random entry)</text>
</g>
<!-- _78f&#45;&gt;_78fc -->
<g id="edge7" class="edge">
<title>_78f-&gt;_78fc</title>
<path fill="none" stroke="#000000" d="M225.3506,-79.8369C201.8688,-69.2036 164.3506,-52.2142 134.5768,-38.7317"/>
<polygon fill="#000000" stroke="#000000" points="135.7631,-35.4268 125.2097,-34.49 132.8755,-41.8035 135.7631,-35.4268"/>
</g>
<!-- _78fa -->
<g id="node9" class="node">
<title>_78fa</title>
<ellipse fill="none" stroke="#000000" cx="247.7942" cy="-18" rx="52.105" ry="18"/>
<text text-anchor="middle" x="247.7942" y="-13.8" font-family="Times,serif" font-size="14.00" fill="#000000">78fa (flag)</text>
</g>
<!-- _78f&#45;&gt;_78fa -->
<g id="edge8" class="edge">
<title>_78f-&gt;_78fa</title>
<path fill="none" stroke="#000000" d="M247.7942,-71.8314C247.7942,-64.131 247.7942,-54.9743 247.7942,-46.4166"/>
<polygon fill="#000000" stroke="#000000" points="251.2943,-46.4132 247.7942,-36.4133 244.2943,-46.4133 251.2943,-46.4132"/>
</g>
<!-- _78c1 -->
<g id="node12" class="node">
<title>_78c1</title>
<ellipse fill="none" stroke="#000000" cx="347.7942" cy="-18" rx="29.6185" ry="18"/>
<text text-anchor="middle" x="347.7942" y="-13.8" font-family="Times,serif" font-size="14.00" fill="#000000">78c1</text>
</g>
<!-- _78c&#45;&gt;_78c1 -->
<g id="edge11" class="edge">
<title>_78c-&gt;_78c1</title>
<path fill="none" stroke="#000000" d="M337.327,-71.8314C338.8641,-63.9266 340.6995,-54.4872 342.401,-45.7365"/>
<polygon fill="#000000" stroke="#000000" points="345.8379,-46.3976 344.3111,-35.9134 338.9666,-45.0615 345.8379,-46.3976"/>
</g>
</g>
</svg>